<svg width="62" height="45" viewBox="0 0 62 45" fill="none" xmlns="http://www.w3.org/2000/svg">
<path fill-rule="evenodd" clip-rule="evenodd" d="M30.5013 44.305C14.0783 44.305 0.71875 34.5239 0.71875 22.5006C0.71875 10.4774 14.0783 0.695068 30.5013 0.695068C46.9221 0.695068 60.2806 10.4774 60.2806 22.5006C60.2806 34.5239 46.9221 44.305 30.5013 44.305Z" fill="#D71440"/>
<path fill-rule="evenodd" clip-rule="evenodd" d="M30.5001 0C22.429 0 14.8245 2.29446 9.08757 6.46028C6.25843 8.51437 4.03131 10.9166 2.46879 13.5991C0.829997 16.4129 0 19.4075 0 22.4995C0 25.5916 0.829997 28.5861 2.46879 31.4C4.03131 34.0823 6.25843 36.4835 9.08757 38.5388C14.8245 42.7046 22.429 45 30.5001 45C38.5722 45 46.1758 42.7046 51.9116 38.5388C54.7408 36.4835 56.9668 34.0823 58.5282 31.3989C60.1661 28.5861 60.997 25.5916 60.997 22.4995C60.997 19.4075 60.1661 16.4129 58.5282 13.5991C56.9668 10.9166 54.7408 8.51437 51.9116 6.46028C46.1758 2.29446 38.5722 0 30.5001 0ZM30.5001 1.39004C46.552 1.39004 59.5618 10.8396 59.5618 22.4995C59.5618 34.1583 46.552 43.61 30.5001 43.61C14.4503 43.61 1.43521 34.1583 1.43521 22.4995C1.43521 10.8396 14.4503 1.39004 30.5001 1.39004Z" fill="#FFFFFE"/>
<path fill-rule="evenodd" clip-rule="evenodd" d="M36.2656 27.3388C36.2699 24.6308 38.4016 22.594 41.1311 22.5898C42.2177 22.5898 43.195 22.7973 43.9911 23.368V24.6554C43.3764 24.213 42.4986 23.8321 41.1311 23.8362C39.0451 23.8454 37.6967 25.258 37.7084 27.3388C37.7222 29.3684 39.1457 30.8395 41.1311 30.8395C42.3704 30.8395 43.0859 30.6198 43.9911 30.0203V31.3096C43.2035 31.8752 42.2177 32.0848 41.1311 32.0848C38.2405 32.0848 36.2624 29.9761 36.2656 27.3388Z" fill="#FFFFFE"/>
<path fill-rule="evenodd" clip-rule="evenodd" d="M45.5703 22.8188V31.8579H51.8669V30.6115H46.9303V27.8603H51.2234V26.611H46.9303V24.063H51.6337V22.8188H45.5703Z" fill="#FFFFFE"/>
<path fill-rule="evenodd" clip-rule="evenodd" d="M33.332 31.8578H34.6963V22.8188H33.332V31.8578Z" fill="#FFFFFE"/>
<path fill-rule="evenodd" clip-rule="evenodd" d="M18.707 22.8188V31.8579H20.0722V27.9969H24.057V26.7506H20.0722V24.063H24.536V22.8188H18.707Z" fill="#FFFFFE"/>
<path fill-rule="evenodd" clip-rule="evenodd" d="M7.63672 27.3388C7.63672 30.0469 9.72607 32.0857 12.4959 32.0857C15.2721 32.0857 17.3604 30.0469 17.3604 27.3388C17.3604 24.6338 15.2721 22.5898 12.4959 22.5898C9.72607 22.5898 7.63672 24.6338 7.63672 27.3388ZM9.07637 27.3388C9.07637 25.3073 10.5169 23.8342 12.4959 23.8342C14.4814 23.8342 15.9188 25.3073 15.9188 27.3388C15.9188 29.3663 14.4814 30.8395 12.4959 30.8395C10.5169 30.8395 9.07637 29.3663 9.07637 27.3388Z" fill="#FFFFFE"/>
<path fill-rule="evenodd" clip-rule="evenodd" d="M25.9844 22.8188V31.8579H27.3497V27.9969H31.3343V26.7506H27.3497V24.063H31.8134V22.8188H25.9844Z" fill="#FFFFFE"/>
<path fill-rule="evenodd" clip-rule="evenodd" d="M33.6602 13.3289C33.6602 15.3389 35.1261 15.7568 36.4182 16.1541C37.3744 16.4506 38.285 16.7566 38.285 17.6128C38.285 18.5101 37.279 18.9648 36.4182 18.9762C35.5236 18.9894 34.5335 18.5737 33.8191 18.083L33.8222 19.4032C34.5123 19.9576 35.478 20.2819 36.3896 20.2726C38.3062 20.2542 39.7054 19.0993 39.7054 17.4547C39.7054 15.6653 38.2606 15.2846 37.0352 14.9211C35.9995 14.6152 35.0583 14.3174 35.0583 13.3289C35.0583 12.8454 35.4706 12.0231 36.8422 12.0231C37.5494 12.0231 38.0687 12.1237 38.974 12.674L39.0673 12.7365L39.0705 11.4123C38.516 10.9965 37.7157 10.7769 36.8422 10.7769C34.5229 10.7789 33.6602 12.3454 33.6602 13.3289Z" fill="#FFFFFE"/>
<path fill-rule="evenodd" clip-rule="evenodd" d="M40.2148 11.0054V12.2527H43.1819V20.0444H44.5461V12.2527H47.5143V11.0054H40.2148Z" fill="#FFFFFE"/>
<path fill-rule="evenodd" clip-rule="evenodd" d="M22.9805 15.5257C22.9805 18.2338 25.0698 20.2726 27.8396 20.2726C30.6158 20.2726 32.7041 18.2338 32.7041 15.5257C32.7041 12.8208 30.6158 10.7769 27.8396 10.7769C25.0698 10.7769 22.9805 12.8208 22.9805 15.5257ZM24.42 15.5257C24.42 13.4943 25.8605 12.0211 27.8396 12.0211C29.825 12.0211 31.2624 13.4943 31.2624 15.5257C31.2624 17.5533 29.825 19.0264 27.8396 19.0264C25.8605 19.0264 24.42 17.5533 24.42 15.5257Z" fill="#FFFFFE"/>
<path fill-rule="evenodd" clip-rule="evenodd" d="M15.9648 11.0054V20.0444H17.328V16.3805H19.2625C22.061 16.3805 22.2782 14.3201 22.2782 13.6899C22.2782 13.0626 22.061 11.0054 19.2625 11.0054H15.9648ZM19.0494 12.1746C19.765 12.1746 20.9702 12.3737 20.9702 13.6899C20.9702 15.01 19.765 15.206 19.0494 15.206H17.328V12.1746H19.0494Z" fill="#FFFFFE"/>
</svg>
